<svg version="1.1" id="Layer_1" xmlns="http://www.w3.org/2000/svg" xmlns:xlink="http://www.w3.org/1999/xlink" x="0px" y="0px"
	 width="100%" viewBox="0 0 1000 1047" enable-background="new 0 0 1000 1047" xml:space="preserve">
<path fill="#000000" opacity="1.000000" stroke="none" 
	d="
M654.000000,1048.000000 
	C436.000000,1048.000000 218.500000,1048.000000 1.000000,1048.000000 
	C1.000000,699.000000 1.000000,350.000000 1.000000,1.000000 
	C334.333344,1.000000 667.666687,1.000000 1001.000000,1.000000 
	C1001.000000,350.000000 1001.000000,699.000000 1001.000000,1048.000000 
	C885.500000,1048.000000 770.000000,1048.000000 654.000000,1048.000000 
M513.023926,930.525269 
	C535.309875,936.823853 557.605530,943.088196 579.879272,949.429749 
	C605.596008,956.751709 631.286255,964.166931 657.001343,971.494812 
	C681.640991,978.516174 706.325989,985.379883 730.935242,992.505737 
	C743.576416,996.166077 756.073425,999.341003 769.564758,998.169678 
	C786.616821,996.689148 801.560059,991.051941 815.123901,980.574768 
	C830.439087,968.744751 839.613525,953.158264 844.914795,935.047363 
	C852.059326,910.639526 858.742188,886.096924 865.737000,861.644836 
	C871.410095,841.813171 877.374451,822.064514 882.986511,802.215942 
	C889.819153,778.050476 896.323608,753.792175 903.147766,729.624268 
	C908.615845,710.259033 914.427917,690.991150 919.945312,671.639648 
	C927.730713,644.333801 935.192688,616.934265 943.171692,589.685791 
	C947.592285,574.589417 951.918274,559.689148 951.166687,543.601135 
	C950.529480,529.962036 947.209229,517.146240 941.446960,505.065552 
	C935.515564,492.630432 928.478027,480.722473 921.911987,468.590637 
	C912.621216,451.424683 903.263123,434.294922 894.034668,417.095612 
	C878.967102,389.013885 864.000732,360.877869 848.951233,332.786377 
	C842.345581,320.456360 835.617371,308.192017 828.985291,295.876038 
	C816.341064,272.395172 803.715454,248.904282 791.102417,225.406662 
	C781.713623,207.915726 772.344055,190.414459 762.989014,172.905457 
	C749.646179,147.932999 736.419312,122.898048 722.964417,97.986176 
	C711.705750,77.140511 695.113037,62.472515 672.467896,54.738018 
	C661.297668,50.922794 649.834778,50.198631 638.360657,51.188393 
	C630.526184,51.864197 622.417480,53.273369 615.196594,56.226048 
	C604.571472,60.570732 594.588318,66.508018 584.407166,71.909096 
	C574.941223,76.930687 565.529053,82.057846 556.173340,87.282043 
	C539.705750,96.477455 523.319519,105.818619 506.860352,115.029213 
	C494.669067,121.851501 482.384521,128.507187 470.197906,135.337723 
	C450.927155,146.138870 431.733795,157.078217 412.449219,167.854538 
	C400.125122,174.741302 387.660217,181.375748 375.321747,188.237198 
	C355.734650,199.129669 336.218262,210.149292 316.637573,221.053329 
	C303.868195,228.164322 290.994598,235.088699 278.245026,242.234665 
	C258.970367,253.037811 239.693298,263.840302 220.556458,274.884216 
	C210.897552,280.458435 201.193802,286.071472 192.134109,292.540527 
	C178.029907,302.611572 168.548355,316.510895 163.082809,332.833771 
	C158.241974,347.291016 154.221268,362.027191 150.001190,376.687073 
	C143.239212,400.177094 136.713791,423.735504 129.896988,447.209412 
	C123.751419,468.371918 117.195618,489.415649 111.096275,510.591125 
	C102.260391,541.267090 93.733070,572.031921 84.951218,602.723633 
	C81.118629,616.118103 76.852936,629.388550 73.011986,642.780762 
	C66.892433,664.117615 61.158340,685.566406 54.894855,706.860107 
	C49.524036,725.119019 48.849483,743.355103 54.892872,761.418396 
	C64.097328,788.929993 82.540108,807.659241 110.496910,815.894287 
	C145.953568,826.338440 181.640366,835.999573 217.203613,846.084167 
	C253.699188,856.433105 290.161804,866.898315 326.645569,877.289062 
	C360.633881,886.969116 394.631348,896.617065 428.624237,906.281189 
	C456.523621,914.213013 484.422150,922.147766 513.023926,930.525269 
z"/>
<path fill="#00A0E2" opacity="1.000000" stroke="none" 
	d="
M512.672485,930.303223 
	C484.422150,922.147766 456.523621,914.213013 428.624237,906.281189 
	C394.631348,896.617065 360.633881,886.969116 326.645569,877.289062 
	C290.161804,866.898315 253.699188,856.433105 217.203613,846.084167 
	C181.640366,835.999573 145.953568,826.338440 110.496910,815.894287 
	C82.540108,807.659241 64.097328,788.929993 54.892872,761.418396 
	C48.849483,743.355103 49.524036,725.119019 54.894855,706.860107 
	C61.158340,685.566406 66.892433,664.117615 73.011986,642.780762 
	C76.852936,629.388550 81.118629,616.118103 84.951218,602.723633 
	C93.733070,572.031921 102.260391,541.267090 111.096275,510.591125 
	C117.195618,489.415649 123.751419,468.371918 129.896988,447.209412 
	C136.713791,423.735504 143.239212,400.177094 150.001190,376.687073 
	C154.221268,362.027191 158.241974,347.291016 163.082809,332.833771 
	C168.548355,316.510895 178.029907,302.611572 192.134109,292.540527 
	C201.193802,286.071472 210.897552,280.458435 220.556458,274.884216 
	C239.693298,263.840302 258.970367,253.037811 278.245026,242.234665 
	C290.994598,235.088699 303.868195,228.164322 316.637573,221.053329 
	C336.218262,210.149292 355.734650,199.129669 375.321747,188.237198 
	C387.660217,181.375748 400.125122,174.741302 412.449219,167.854538 
	C431.733795,157.078217 450.927155,146.138870 470.197906,135.337723 
	C482.384521,128.507187 494.669067,121.851501 506.860352,115.029213 
	C523.319519,105.818619 539.705750,96.477455 556.173340,87.282043 
	C565.529053,82.057846 574.941223,76.930687 584.407166,71.909096 
	C594.588318,66.508018 604.571472,60.570732 615.196594,56.226048 
	C622.417480,53.273369 630.526184,51.864197 638.360657,51.188393 
	C649.834778,50.198631 661.297668,50.922794 672.467896,54.738018 
	C695.113037,62.472515 711.705750,77.140511 722.964417,97.986176 
	C736.419312,122.898048 749.646179,147.932999 762.989014,172.905457 
	C772.344055,190.414459 781.713623,207.915726 791.102417,225.406662 
	C803.715454,248.904282 816.341064,272.395172 828.985291,295.876038 
	C835.617371,308.192017 842.345581,320.456360 848.951233,332.786377 
	C864.000732,360.877869 878.967102,389.013885 894.034668,417.095612 
	C903.263123,434.294922 912.621216,451.424683 921.911987,468.590637 
	C928.478027,480.722473 935.515564,492.630432 941.446960,505.065552 
	C947.209229,517.146240 950.529480,529.962036 951.166687,543.601135 
	C951.918274,559.689148 947.592285,574.589417 943.171692,589.685791 
	C935.192688,616.934265 927.730713,644.333801 919.945312,671.639648 
	C914.427917,690.991150 908.615845,710.259033 903.147766,729.624268 
	C896.323608,753.792175 889.819153,778.050476 882.986511,802.215942 
	C877.374451,822.064514 871.410095,841.813171 865.737000,861.644836 
	C858.742188,886.096924 852.059326,910.639526 844.914795,935.047363 
	C839.613525,953.158264 830.439087,968.744751 815.123901,980.574768 
	C801.560059,991.051941 786.616821,996.689148 769.564758,998.169678 
	C756.073425,999.341003 743.576416,996.166077 730.935242,992.505737 
	C706.325989,985.379883 681.640991,978.516174 657.001343,971.494812 
	C631.286255,964.166931 605.596008,956.751709 579.879272,949.429749 
	C557.605530,943.088196 535.309875,936.823853 512.672485,930.303223 
M465.823761,401.461334 
	C465.012329,403.891327 463.526642,406.313263 463.497589,408.752563 
	C463.289307,426.250061 463.383270,443.751099 463.360962,461.251007 
	C463.358826,462.939880 463.218445,464.628571 463.084839,467.588623 
	C461.088318,464.567963 459.925903,462.781433 458.736053,461.013336 
	C441.151581,434.883392 421.319305,410.758270 396.009766,391.641968 
	C375.551239,376.189606 353.244141,366.415009 326.740723,367.884491 
	C287.395264,370.066040 259.112762,387.691711 243.950424,424.777618 
	C232.697403,452.301666 229.018555,481.351685 227.153656,510.653900 
	C224.504745,552.274841 224.258789,593.928589 228.031937,635.516479 
	C230.324463,660.784912 234.281006,685.745117 243.918991,709.441833 
	C251.954758,729.199158 263.254089,746.854614 282.670502,756.779053 
	C321.481262,776.616699 360.034912,774.770081 397.193634,751.943542 
	C423.381775,735.856262 443.262115,713.330872 460.165802,687.984558 
	C461.089203,686.599976 462.064362,685.249939 463.015411,683.883850 
	C463.387604,684.049988 463.759796,684.216125 464.131989,684.382202 
	C464.131989,712.794617 464.131989,741.206970 464.131989,769.583740 
	C489.371307,769.583740 514.113953,769.583740 539.198303,769.583740 
	C539.198303,767.266907 539.198303,765.284851 539.198303,763.302856 
	C539.198364,703.969788 539.173584,644.636719 539.285583,585.303894 
	C539.290222,582.830017 539.936157,579.889709 541.358337,577.958191 
	C556.370789,557.569336 571.390320,537.178650 586.832153,517.115051 
	C602.280945,497.042419 618.048828,477.188354 637.233643,460.422089 
	C640.482483,457.582764 644.070251,455.123444 647.561218,452.570343 
	C665.613953,439.367798 686.622375,452.869293 690.845520,466.966858 
	C692.957764,474.017822 694.089172,481.631226 694.119141,488.996521 
	C694.489380,580.328369 694.575012,671.661438 694.733337,762.994141 
	C694.737000,765.092590 694.733765,767.190979 694.733765,769.458801 
	C719.861572,769.458801 744.275391,769.458801 768.918213,769.458801 
	C769.034607,767.889771 769.213257,766.593872 769.215271,765.297791 
	C769.366394,667.131714 769.694885,568.965454 769.554749,470.799774 
	C769.492188,427.000244 742.061523,387.019470 702.843262,373.706879 
	C660.646790,359.383301 623.889526,369.545715 592.458618,400.571228 
	C573.962646,418.828705 559.384338,440.157227 544.683228,461.392639 
	C543.212585,463.516968 541.699402,465.611877 540.205994,467.720459 
	C539.796570,467.608063 539.387207,467.495697 538.977783,467.383301 
	C538.977783,413.015228 538.977783,358.647186 538.977783,302.864990 
	C514.087036,336.383972 490.156036,368.610596 465.823761,401.461334 
z"/>
<path fill="#FEFFFF" opacity="1.000000" stroke="none" 
	d="
M466.024384,401.149261 
	C490.156036,368.610596 514.087036,336.383972 538.977783,302.864990 
	C538.977783,358.647186 538.977783,413.015228 538.977783,467.383301 
	C539.387207,467.495697 539.796570,467.608063 540.205994,467.720459 
	C541.699402,465.611877 543.212585,463.516968 544.683228,461.392639 
	C559.384338,440.157227 573.962646,418.828705 592.458618,400.571228 
	C623.889526,369.545715 660.646790,359.383301 702.843262,373.706879 
	C742.061523,387.019470 769.492188,427.000244 769.554749,470.799774 
	C769.694885,568.965454 769.366394,667.131714 769.215271,765.297791 
	C769.213257,766.593872 769.034607,767.889771 768.918213,769.458801 
	C744.275391,769.458801 719.861572,769.458801 694.733765,769.458801 
	C694.733765,767.190979 694.737000,765.092590 694.733337,762.994141 
	C694.575012,671.661438 694.489380,580.328369 694.119141,488.996521 
	C694.089172,481.631226 692.957764,474.017822 690.845520,466.966858 
	C686.622375,452.869293 665.613953,439.367798 647.561218,452.570343 
	C644.070251,455.123444 640.482483,457.582764 637.233643,460.422089 
	C618.048828,477.188354 602.280945,497.042419 586.832153,517.115051 
	C571.390320,537.178650 556.370789,557.569336 541.358337,577.958191 
	C539.936157,579.889709 539.290222,582.830017 539.285583,585.303894 
	C539.173584,644.636719 539.198364,703.969788 539.198303,763.302856 
	C539.198303,765.284851 539.198303,767.266907 539.198303,769.583740 
	C514.113953,769.583740 489.371307,769.583740 464.131989,769.583740 
	C464.131989,741.206970 464.131989,712.794617 464.131989,684.382202 
	C463.759796,684.216125 463.387604,684.049988 463.015411,683.883850 
	C462.064362,685.249939 461.089203,686.599976 460.165802,687.984558 
	C443.262115,713.330872 423.381775,735.856262 397.193634,751.943542 
	C360.034912,774.770081 321.481262,776.616699 282.670502,756.779053 
	C263.254089,746.854614 251.954758,729.199158 243.918991,709.441833 
	C234.281006,685.745117 230.324463,660.784912 228.031937,635.516479 
	C224.258789,593.928589 224.504745,552.274841 227.153656,510.653900 
	C229.018555,481.351685 232.697403,452.301666 243.950424,424.777618 
	C259.112762,387.691711 287.395264,370.066040 326.740723,367.884491 
	C353.244141,366.415009 375.551239,376.189606 396.009766,391.641968 
	C421.319305,410.758270 441.151581,434.883392 458.736053,461.013336 
	C459.925903,462.781433 461.088318,464.567963 463.084839,467.588623 
	C463.218445,464.628571 463.358826,462.939880 463.360962,461.251007 
	C463.383270,443.751099 463.289307,426.250061 463.497589,408.752563 
	C463.526642,406.313263 465.012329,403.891327 466.024384,401.149261 
M363.713135,459.775970 
	C361.319733,457.971832 358.976593,456.096069 356.525024,454.374786 
	C336.954803,440.634460 311.358948,444.681061 305.181213,473.576569 
	C301.791901,489.429565 299.765106,505.801544 299.295563,522.002441 
	C298.393494,553.127686 298.649536,584.304382 299.182983,615.446716 
	C299.510498,634.565918 300.509979,653.793152 306.800934,672.152222 
	C313.987488,693.124756 330.794159,700.779053 350.653656,690.918518 
	C360.783936,685.888733 370.399750,679.035339 378.766815,671.385925 
	C406.499146,646.032410 428.188019,615.642395 448.507416,584.267029 
	C449.403931,582.882751 448.899078,579.855286 447.995331,578.150818 
	C433.868164,551.507141 418.329407,525.715393 400.621643,501.277832 
	C389.849731,486.412109 378.305573,472.204681 363.713135,459.775970 
z"/>
<path fill="#01A0E2" opacity="1.000000" stroke="none" 
	d="
M363.989838,459.997833 
	C378.305573,472.204681 389.849731,486.412109 400.621643,501.277832 
	C418.329407,525.715393 433.868164,551.507141 447.995331,578.150818 
	C448.899078,579.855286 449.403931,582.882751 448.507416,584.267029 
	C428.188019,615.642395 406.499146,646.032410 378.766815,671.385925 
	C370.399750,679.035339 360.783936,685.888733 350.653656,690.918518 
	C330.794159,700.779053 313.987488,693.124756 306.800934,672.152222 
	C300.509979,653.793152 299.510498,634.565918 299.182983,615.446716 
	C298.649536,584.304382 298.393494,553.127686 299.295563,522.002441 
	C299.765106,505.801544 301.791901,489.429565 305.181213,473.576569 
	C311.358948,444.681061 336.954803,440.634460 356.525024,454.374786 
	C358.976593,456.096069 361.319733,457.971832 363.989838,459.997833 
z"/>
</svg>