<svg version="1.1" id="Layer_1" xmlns="http://www.w3.org/2000/svg" xmlns:xlink="http://www.w3.org/1999/xlink" x="0px" y="0px"
	 width="100%" viewBox="0 0 1400 373" enable-background="new 0 0 1400 373" xml:space="preserve">
<path fill="#FFFFFF" opacity="1.000000" stroke="none" 
	d="
M918.000000,374.000000 
	C612.000000,374.000000 306.500031,374.000000 1.000041,374.000000 
	C1.000027,249.666687 1.000027,125.333382 1.000014,1.000058 
	C467.666626,1.000039 934.333252,1.000039 1401.000000,1.000019 
	C1401.000000,125.333275 1401.000000,249.666550 1401.000000,373.999908 
	C1240.166626,374.000000 1079.333374,374.000000 918.000000,374.000000 
M1289.500000,36.000000 
	C862.409729,36.000000 435.319489,36.000000 8.284838,36.000000 
	C8.284838,138.968445 8.284838,241.372620 8.284838,343.717804 
	C466.303497,343.717804 924.037231,343.717804 1381.714966,343.717804 
	C1381.714966,241.031189 1381.714966,138.627014 1381.714966,36.000000 
	C1351.120361,36.000000 1320.810181,36.000000 1289.500000,36.000000 
z"/>
<path fill="#000000" opacity="1.000000" stroke="none" 
	d="
M1290.000000,36.000000 
	C1320.810181,36.000000 1351.120361,36.000000 1381.714966,36.000000 
	C1381.714966,138.627014 1381.714966,241.031189 1381.714966,343.717804 
	C924.037231,343.717804 466.303497,343.717804 8.284838,343.717804 
	C8.284838,241.372620 8.284838,138.968445 8.284838,36.000000 
	C435.319489,36.000000 862.409729,36.000000 1290.000000,36.000000 
z"/>
</svg>